<svg xmlns="http://www.w3.org/2000/svg" xmlns:xlink="http://www.w3.org/1999/xlink" width="500" zoomAndPan="magnify" viewBox="0 0 375 374.999991" height="500" preserveAspectRatio="xMidYMid meet" version="1.0"><path fill="#ffffff" d="M 257.164062 156.652344 C 256.441406 156.742188 256.078125 156.984375 255.871094 157.523438 C 255.570312 158.367188 255.570312 171.238281 255.871094 185.765625 C 256.050781 194.96875 256.109375 195.449219 256.742188 196.683594 C 257.675781 198.425781 259.386719 200.261719 260.710938 200.953125 C 262.457031 201.855469 265.28125 202.246094 268.320312 202.066406 C 270.457031 201.914062 271.148438 201.765625 271.449219 201.375 C 271.871094 200.800781 271.960938 197.914062 271.660156 195.359375 L 271.476562 193.824219 L 269.3125 193.644531 C 268.140625 193.554688 266.9375 193.402344 266.667969 193.28125 C 265.523438 192.832031 265.464844 191.507812 265.492188 174.035156 C 265.523438 158.488281 265.492188 157.101562 265.011719 156.921875 C 264.351562 156.652344 258.425781 156.441406 257.164062 156.652344 Z M 257.164062 156.652344 " fill-opacity="1" fill-rule="nonzero"/><path fill="#ffffff" d="M 109.824219 161.042969 C 108.800781 163.117188 108.050781 164.890625 108.140625 164.984375 C 108.261719 165.074219 109.464844 165.164062 110.847656 165.164062 L 113.34375 165.164062 L 113.34375 201.855469 L 116.472656 201.855469 C 118.15625 201.855469 120.410156 201.765625 121.433594 201.675781 L 123.269531 201.464844 L 123.300781 191.808594 C 123.328125 186.484375 123.417969 181.132812 123.539062 179.898438 L 123.71875 177.644531 L 126.15625 181.554688 C 127.480469 183.6875 130.789062 189.132812 133.523438 193.644531 L 138.457031 201.824219 L 142.757812 201.855469 L 147.027344 201.855469 L 147.027344 157.34375 L 136.710938 157.34375 L 136.894531 166.457031 C 137.011719 171.480469 137.011719 176.890625 136.894531 178.484375 C 136.710938 181.253906 136.683594 181.375 136.230469 180.742188 C 135.960938 180.351562 132.894531 175.238281 129.375 169.375 C 125.886719 163.507812 122.816406 158.425781 122.578125 158.09375 C 122.15625 157.554688 121.734375 157.492188 116.921875 157.402344 L 111.691406 157.3125 Z M 109.824219 161.042969 " fill-opacity="1" fill-rule="nonzero"/><path fill="#ffffff" d="M 238.757812 162.457031 L 238.757812 166.667969 L 248.378906 166.667969 L 248.378906 158.246094 L 238.757812 158.246094 Z M 238.757812 162.457031 " fill-opacity="1" fill-rule="nonzero"/><path fill="#ffffff" d="M 276.351562 162.457031 L 276.351562 166.667969 L 285.671875 166.667969 L 285.671875 158.246094 L 276.351562 158.246094 Z M 276.351562 162.457031 " fill-opacity="1" fill-rule="nonzero"/><path fill="#ffffff" d="M 327.207031 161.886719 C 326.15625 163.871094 325.402344 165.585938 325.492188 165.703125 C 325.613281 165.792969 326.574219 165.945312 327.628906 166.003906 L 329.582031 166.125 L 329.582031 182.15625 C 329.582031 190.96875 329.671875 198.996094 329.765625 200.019531 L 329.972656 201.855469 L 339.207031 201.855469 L 339.238281 198.003906 C 339.265625 195.898438 339.359375 192.351562 339.476562 190.09375 L 339.660156 185.976562 L 344.019531 193.914062 L 348.378906 201.824219 L 353.734375 201.855469 C 356.652344 201.855469 359.058594 201.765625 359.058594 201.644531 C 359.058594 201.554688 358.0625 199.6875 356.832031 197.523438 C 355.597656 195.359375 353.492188 191.570312 352.167969 189.101562 L 349.761719 184.621094 L 350.785156 182.636719 C 351.328125 181.554688 353.160156 178.15625 354.816406 175.085938 L 357.855469 169.523438 L 354.457031 169.433594 C 352.621094 169.402344 350.15625 169.464844 349.011719 169.585938 L 346.9375 169.824219 L 343.265625 176.984375 L 339.597656 184.109375 L 339.417969 175.058594 C 339.296875 170.066406 339.207031 164.230469 339.207031 162.09375 L 339.207031 158.246094 L 329.132812 158.246094 Z M 327.207031 161.886719 " fill-opacity="1" fill-rule="nonzero"/><path fill="#ffffff" d="M 191.898438 160.351562 C 190.96875 160.742188 190.878906 161.042969 190.847656 165.222656 L 190.789062 168.921875 L 189.074219 169.011719 L 187.328125 169.101562 L 187.328125 177.191406 L 190.546875 177.191406 L 190.726562 180.109375 C 190.847656 181.734375 190.9375 184.472656 190.9375 186.214844 C 190.9375 187.960938 191.085938 190.726562 191.238281 192.382812 C 191.75 197.492188 193.765625 200.53125 197.34375 201.464844 C 199.480469 202.003906 207.449219 202.003906 208.230469 201.433594 C 208.742188 201.042969 208.773438 200.832031 208.410156 197.675781 C 208.230469 195.839844 207.988281 194.15625 207.898438 193.914062 C 207.75 193.554688 207.238281 193.492188 205.191406 193.644531 C 202.96875 193.792969 202.578125 193.765625 202.035156 193.253906 C 200.773438 192.140625 200.621094 191.179688 200.53125 184.109375 L 200.441406 177.34375 L 202.003906 177.191406 C 203.058594 177.074219 203.6875 176.832031 203.988281 176.441406 C 204.921875 175.179688 207.78125 169.976562 207.78125 169.554688 C 207.78125 169.132812 207.238281 169.074219 204.171875 169.074219 L 200.5625 169.074219 L 200.5625 160.351562 L 198.09375 160.351562 C 196.710938 160.351562 194.9375 160.289062 194.09375 160.199219 C 193.285156 160.109375 192.289062 160.171875 191.898438 160.351562 Z M 191.898438 160.351562 " fill-opacity="1" fill-rule="nonzero"/><path fill="#ffffff" d="M 308.53125 169.222656 C 307.027344 169.644531 305.855469 170.246094 303.359375 171.898438 C 302.695312 172.320312 302.515625 172.351562 302.515625 172.050781 C 302.515625 171.808594 302.367188 171.117188 302.183594 170.484375 L 301.882812 169.375 L 292.589844 169.375 L 290.785156 172.984375 C 289.792969 174.96875 288.980469 176.710938 288.980469 176.890625 C 288.980469 177.074219 290.003906 177.191406 291.539062 177.191406 L 294.09375 177.191406 L 294.09375 201.855469 L 303.386719 201.855469 L 303.476562 191.6875 C 303.597656 180.410156 303.660156 179.898438 305.582031 178.695312 C 306.9375 177.824219 309.792969 177.976562 311.148438 178.9375 C 312.589844 179.960938 312.742188 181.3125 312.742188 192.230469 L 312.742188 201.855469 L 322.367188 201.855469 L 322.335938 191.085938 C 322.335938 178.878906 322.15625 176.382812 321.132812 174.304688 C 320.050781 172.050781 317.945312 170.09375 316.019531 169.554688 C 313.492188 168.832031 310.425781 168.710938 308.53125 169.222656 Z M 308.53125 169.222656 " fill-opacity="1" fill-rule="nonzero"/><path fill="#ffffff" d="M 154.96875 170.15625 C 154.847656 170.785156 154.847656 175.058594 154.9375 179.71875 C 155.179688 192.050781 155.929688 195.449219 159.058594 198.578125 C 161.074219 200.621094 163.089844 201.375 167.871094 201.914062 C 172.230469 202.394531 179.898438 201.464844 182.457031 200.082031 L 183.117188 199.71875 L 183.117188 169.375 L 173.792969 169.375 L 173.792969 176.53125 C 173.792969 180.5 173.703125 185.976562 173.585938 188.742188 L 173.402344 193.792969 L 170.96875 193.582031 C 168.050781 193.375 166.546875 192.773438 165.886719 191.628906 C 165.164062 190.425781 164.800781 187.117188 164.773438 181.824219 C 164.773438 179.328125 164.683594 175.449219 164.5625 173.191406 L 164.382812 169.074219 L 155.179688 169.074219 Z M 154.96875 170.15625 " fill-opacity="1" fill-rule="nonzero"/><path fill="#ffffff" d="M 213.101562 169.402344 C 212.683594 169.644531 208.984375 176.5 208.984375 177.042969 C 208.984375 177.132812 210.066406 177.191406 211.386719 177.191406 L 213.792969 177.191406 L 213.792969 201.855469 L 223.117188 201.855469 L 223.148438 199.207031 C 223.148438 197.765625 223.269531 193.28125 223.386719 189.222656 C 223.570312 182.578125 223.628906 181.734375 224.199219 180.800781 C 225.3125 178.878906 227.148438 178.003906 231.085938 177.585938 L 233.191406 177.34375 L 233.28125 173.191406 L 233.375 169.074219 L 230.578125 169.074219 C 227.988281 169.074219 227.597656 169.164062 225.554688 170.125 C 224.351562 170.695312 223.328125 171.179688 223.269531 171.179688 C 223.207031 171.179688 223.238281 170.695312 223.328125 170.125 L 223.507812 169.074219 L 218.578125 169.074219 C 215.75 169.074219 213.402344 169.222656 213.101562 169.402344 Z M 213.101562 169.402344 " fill-opacity="1" fill-rule="nonzero"/><path fill="#ffffff" d="M 237.011719 171.386719 C 235.507812 174.003906 234.246094 176.472656 234.246094 176.890625 C 234.246094 177.074219 235.207031 177.191406 236.710938 177.191406 L 239.148438 177.191406 L 238.726562 201.855469 L 248.679688 201.855469 L 248.679688 169.375 L 238.183594 169.375 Z M 237.011719 171.386719 " fill-opacity="1" fill-rule="nonzero"/><path fill="#ffffff" d="M 275.539062 169.734375 C 274.996094 170.425781 271.839844 176.472656 271.839844 176.832031 C 271.839844 177.074219 272.621094 177.191406 274.214844 177.191406 L 276.589844 177.191406 L 276.410156 189.523438 L 276.261719 201.855469 L 286.273438 201.855469 L 286.214844 185.675781 L 286.125 169.523438 L 280.980469 169.433594 C 277.101562 169.375 275.75 169.464844 275.539062 169.734375 Z M 275.539062 169.734375 " fill-opacity="1" fill-rule="nonzero"/><path fill="#61f181" d="M 78.625 156.382812 C 73.890625 157.199219 67.742188 159.105469 64.097656 160.953125 C 56.917969 164.601562 50.386719 170.53125 48.429688 175.207031 C 47.125 178.308594 47.285156 183.316406 48.753906 186.742188 L 50.007812 189.625 L 51.910156 186.199219 C 55.882812 178.964844 61.703125 172.871094 68.449219 168.734375 C 72.367188 166.339844 73.511719 166.125 70.953125 168.191406 C 66.980469 171.453125 59.800781 178.472656 57.679688 181.140625 C 54.46875 185.328125 50.933594 194.035156 50.933594 197.839844 C 50.933594 198.601562 50.332031 198.386719 48.101562 196.644531 C 43.640625 193.273438 41.300781 192.5625 27.539062 190.496094 C 26.777344 190.332031 28.40625 190.226562 31.074219 190.171875 C 36.625 190.117188 40.8125 190.988281 45.925781 193.378906 L 49.300781 194.957031 L 49.300781 193.542969 C 49.300781 191.148438 46.578125 186.90625 44.1875 185.492188 C 37.386719 181.574219 23.511719 182.824219 15.132812 188.101562 C 13.011719 189.464844 12.902344 189.679688 13.445312 190.824219 C 14.699219 193.109375 20.191406 198.058594 23.511719 199.746094 C 26.9375 201.597656 32.488281 203.171875 35.535156 203.171875 C 38.855469 203.171875 42.824219 201.976562 45.492188 200.179688 L 48.210938 198.332031 L 49.789062 199.691406 C 50.933594 200.617188 51.476562 201.703125 51.695312 203.445312 C 52.128906 206.058594 52.671875 206.382812 54.632812 205.023438 C 56.15625 203.988281 56.15625 203.5 54.46875 201.324219 C 53 199.417969 52.671875 196.265625 53.652344 193.707031 C 54.140625 192.347656 54.359375 192.292969 58.277344 192.292969 C 65.730469 192.292969 72.203125 189.191406 77.863281 182.824219 C 84.066406 175.917969 88.253906 164.4375 87.4375 156.492188 C 87.382812 155.730469 82.8125 155.675781 78.625 156.382812 Z M 78.625 156.382812 " fill-opacity="1" fill-rule="nonzero"/></svg>